<svg id="Capa_1" enable-background="new 0 0 511.81 511.81" height="512" viewBox="0 0 511.81 511.81" width="512" xmlns="http://www.w3.org/2000/svg"><g><path d="m239.169 156.264c-7.412 0-14.355-3.193-20.654-9.492-16.89-16.89-29.736-55.122-10.605-74.253 9.199-9.17 23.701-11.763 40.854-7.397 12.759 3.281 25.547 10.181 33.384 18.003v.015s0 0 .015 0c6.313 6.328 9.507 13.301 9.478 20.742-.044 12.539-8.848 21.196-17.358 29.575l-5.42 5.42c-8.379 8.525-17.036 17.329-29.575 17.388-.046-.001-.075-.001-.119-.001z" fill="#704c55"/><path d="m452.45 156.264c-.044 0-.073 0-.117 0-12.539-.059-21.196-8.862-29.575-17.388l-5.42-5.42c-8.511-8.379-17.314-17.036-17.358-29.575-.029-7.456 3.164-14.429 9.492-20.757 7.822-7.822 20.61-14.722 33.384-18.003 17.153-4.365 31.655-1.772 40.854 7.383 19.131 19.146 6.284 57.378-10.605 74.268-6.299 6.299-13.243 9.492-20.655 9.492z" fill="#5b362a"/><g><path d="m337.865 105.405h7.945 7.529c27.812 0 37.471-12.206 37.471-30 0-23.892-17.944-60-45-60s-45 36.108-45 60c0 22.877 15.304 29.507 37.055 30z" fill="#704c55"/><path d="m402.147 173.901-.015-.015c-7.559-5.449-14.414-12.29-19.79-19.775-8.452-11.719-22.493-17.582-36.533-17.582s-28.081 5.863-36.533 17.596c-5.464 7.588-12.114 14.238-19.805 19.775-11.689 8.438-18.662 22.09-18.662 36.504 0 24.814 20.186 45 45 45 7.676 0 18.823-2.139 30-5.684 11.177 3.545 22.324 5.684 30 5.684 24.814 0 45-20.186 45-45 .001-14.413-6.972-28.066-18.662-36.503z" fill="#704c55"/><path d="m344.522 348.701-28.326-31.577-110.558-4.484-7.266 89.092 125.937 8.022 20.642-28.274.637-17.19c.201-5.311-.231-10.508-1.066-15.589z" fill="#ffb3b3"/><path d="m504.011 315.149c-13.418-18.924-41.14-21.297-59.914-7.668-24.386 17.704-42.019 32.309-54.899 43.641-16.798 14.769-29.491 24.21-43.198 29.861-.352.145-.694.357-1.047.498-8.829 3.497-18.023 5.764-29.392 5.764-24.623 0-61.554-9.097-87.188-15.513l7.266-29.092c39.926 9.976 63.054 15.066 79.664 14.833 11.81-.167 20.334-3.045 29.22-8.773 0-.002-.002-.002-.002-.004-7.947-48.331-48.296-66.954-97.275-67.824-42.654-.707-89.273 12.083-125.949 30.399l-22.311 34.746 19.534 88.288 32.115 9.558c24.214-4.986 47.895-5.964 73.623-2.538 31.787 4.233 57.026 6.943 78.882 6.943 15.668 0 29.518-1.586 42.861-4.825 44.09-10.701 82.892-41.32 156.098-108.261l9.712-8.892c-.001.002-7.716-11.02-7.8-11.141z" fill="#ffd5cc"/><path d="m511.81 326.292s-7.714-11.023-7.798-11.144c-13.418-18.924-41.14-21.297-59.914-7.668-24.386 17.704-42.019 32.309-54.899 43.641-16.798 14.769-29.491 24.21-43.198 29.861v62.463c44.09-10.701 82.892-41.32 156.098-108.261z" fill="#ffb3b3"/><path d="m150.628 443.865h.006l-29.337-132.593-121.297 34.21v150.923l153.798-38.203z" fill="#80d4ff"/></g><g fill="#5b362a"><path d="m420.81 210.405c0-14.414-6.973-28.066-18.662-36.504l-.015-.015c-7.559-5.449-14.414-12.29-19.79-19.775-8.452-11.719-22.493-17.582-36.533-17.582v113.192c11.177 3.545 22.324 5.684 30 5.684 24.814 0 45-20.186 45-45z"/><path d="m390.81 75.405c0-23.892-17.944-60-45-60v90h7.529c27.812 0 37.471-12.206 37.471-30z"/></g></g></svg>