<svg height="512" viewBox="0 0 128 128" width="512" xmlns="http://www.w3.org/2000/svg"><g id="number"><text fill="#24253a" font-family="MyriadPro-Regular, Myriad Pro" font-size="40" letter-spacing=".002em" transform="translate(60.261 -738.265)">9<tspan x="-10.3" y="228">19</tspan><tspan x="-10.3" y="456">29</tspan><tspan x="-10.3" y="684">39</tspan><tspan x="-10.3" y="912">49</tspan><tspan x="-10.3" y="1140">59</tspan><tspan x="-10.3" y="1368">69</tspan><tspan x="-10.3" y="1596">79</tspan><tspan x="-10.3" y="1824">89</tspan><tspan x="-10.3" y="2052">99</tspan><tspan x="-20.599" y="2280">109</tspan><tspan x="-20.599" y="2508">119</tspan><tspan x="-20.599" y="2736">129</tspan><tspan x="-20.599" y="2964">139</tspan><tspan x="-20.599" y="3192">149</tspan><tspan x="-20.599" y="3420">159</tspan><tspan x="-20.599" y="3648">169</tspan><tspan x="-20.599" y="3876">179</tspan><tspan x="-20.599" y="4104">189</tspan><tspan x="-20.599" y="4332">199</tspan><tspan x="-20.599" y="4560">209</tspan><tspan x="-20.599" y="4788">219</tspan><tspan x="-20.599" y="5016">229</tspan><tspan x="-20.599" y="5244">239</tspan><tspan x="-20.599" y="5472">249</tspan></text></g><g id="Circle_Grid" data-name="Circle Grid"><circle cx="64" cy="64" fill="#ea8953" r="64"/></g><g id="icon"><path d="m94.662 81.416-1.612-7.338a19.633 19.633 0 0 0 -12.65-14.435l-8.781-3.079h-15.258l-8.761 3.079a19.71 19.71 0 0 0 -12.675 14.435l-1.588 7.338z" fill="#575b6d"/><g fill="#f4bb87"><path d="m56.371 53.692h15.25v6.29h-15.25z" transform="matrix(-1 0 0 -1 127.991 113.675)"/><path d="m76.01 40.592a2.76 2.76 0 0 1 2.76 2.76 2.76 2.76 0 0 1 -2.76 2.76h-.835v-5.52z"/><path d="m51.981 40.592a2.76 2.76 0 0 0 -2.76 2.76 2.76 2.76 0 0 0 2.76 2.76h.835v-5.52z"/></g><path d="m52.28 31.641v13.215a11.7 11.7 0 0 0 12.874 11.634c6.085-.56 10.538-6.036 10.538-12.145v-12.7z" fill="#fed19a"/><path d="m57.193 26.653c1.81-3.747 5.8-4.049 9.349-3.36 4.744.921 8.864 4.178 10.059 8.86a9.447 9.447 0 0 1 -.9 7.446c-.528.1-2.1-1.428-2.345-2.411-1-3.944-2.517-3.866-2.517-3.866a8.948 8.948 0 0 1 -6.712.868 17.581 17.581 0 0 0 -6.3-.26c-5.616.87-5.543 6.565-5.543 6.565-2.105-7.302-.99-13.995 4.909-13.842z" fill="#414451"/><path d="m63.218 81.416h1.564 1.564l.914-3.272v-.024l5.004-18.14h-.65-.697-.241-3.344-3.344-3.344-3.344-.217-.722-.625l5.004 18.092v.024l.602 2.238.024.048.288 1.034h.289z" fill="#eeefee"/><path d="m67.344 59.982-1.443 4.188h-3.811l-1.443-4.188z" fill="#da364c"/><path d="m61.943 81.416-.577-1.034-.024-.048-.698-1.324.096-.914v-.024l.409-4.162v-.024l.938-9.72h3.826l.938 9.744.409 4.21v.024l.072.866-.866 2.406h-.12-1.564-1.564z" fill="#ef5261"/><path d="m71.62 56.554-7.625 3.428 5.769 5.498z" fill="#dbd8dd"/><path d="m56.371 56.554 7.624 3.428-5.768 5.498z" fill="#dbd8dd"/><path d="m66.346 81.416h-1.564l2.069-7.506 2.43-8.877 1.395-5.053.938-3.416 4.812 5.509-4.403 3.224 4.403 5.317-9.262 10.802h-.698z" fill="#414451"/><path d="m61.943 81.416h-.289-.818l-9.262-10.802 4.378-5.317-4.378-3.224 4.787-5.509.939 3.416 1.395 5.077 2.454 8.829v.024l2.069 7.506z" fill="#414451"/><path d="m95.472 72.929-1.877 26.593a3.838 3.838 0 0 1 -3.828 3.568h-51.533a3.838 3.838 0 0 1 -3.828-3.568l-1.878-26.593a3.838 3.838 0 0 1 3.828-4.108h55.288a3.838 3.838 0 0 1 3.828 4.108z" fill="#eeefee"/><path d="m30 102.206h68v2.794h-68z" fill="#575b6d"/><circle cx="64" cy="87.088" fill="#dbd8dd" r="5.705"/></g></svg>