<svg id="color_line" height="512" viewBox="0 0 74 74" width="512" xmlns="http://www.w3.org/2000/svg" data-name="color line"><path d="m51.387 71-18.262-5.793v-21.515l18.262 5.793z" fill="#fcd462"/><path d="m33.125 43.692 18.262-5.793 18.262 5.793-18.262 5.793z" fill="#fcd462"/><path d="m51.387 49.985a.5.5 0 0 1 -.151-.023l-18.262-5.793a.5.5 0 0 1 0-.953l18.262-5.793a.5.5 0 0 1 .3 0l18.264 5.793a.5.5 0 0 1 0 .953l-18.262 5.793a.5.5 0 0 1 -.151.023zm-16.609-6.293 16.608 5.269 16.614-5.269-16.613-5.268z" fill="#323c6b"/><path d="m51.387 71 18.262-5.793v-21.515l-18.262 5.793z" fill="#fcd462"/><path d="m69.65 43.69v21.52l-18.26 5.79v-2.94l15.31-4.85v-18.58z" fill="#f7be56"/><path d="m51.38 68.06v2.94l-18.26-5.79v-3.02z" fill="#f7be56"/><g fill="#323c6b"><path d="m26.863 68.374a.5.5 0 0 1 -.156-.025 32.932 32.932 0 0 1 -22.707-31.313.5.5 0 0 1 .5-.5.5.5 0 0 1 .5.5 31.933 31.933 0 0 0 22.02 30.364.5.5 0 0 1 -.156.975z"/><path d="m69.484 37.91a.5.5 0 0 1 -.5-.5c0-.075 0-.148.009-.222s.007-.126.007-.188a32.1 32.1 0 0 0 -23.36-30.811.5.5 0 1 1 .27-.963 33.1 33.1 0 0 1 24.09 31.774c0 .081 0 .161-.009.24l-.007.173a.5.5 0 0 1 -.5.497z"/><path d="m9.188 4.611a.5.5 0 0 1 -.151-.977l.5-.159a.5.5 0 0 1 .3.953l-.5.159a.5.5 0 0 1 -.149.024z"/><path d="m11.509 3.875a.5.5 0 0 1 -.151-.977l7.742-2.455a.5.5 0 0 1 .3.953l-7.74 2.456a.5.5 0 0 1 -.151.023z"/><path d="m72.649 60.188a.5.5 0 0 1 -.5-.5v-8.313a.5.5 0 0 1 1 0v8.313a.5.5 0 0 1 -.5.5z"/><path d="m72.649 62.688a.5.5 0 0 1 -.5-.5v-.5a.5.5 0 0 1 1 0v.5a.5.5 0 0 1 -.5.5z"/><path d="m51.387 71.5a.5.5 0 0 1 -.151-.023l-18.262-5.793a.5.5 0 0 1 -.349-.477v-21.515a.5.5 0 0 1 .651-.477l18.262 5.793a.5.5 0 0 1 .349.477v21.515a.5.5 0 0 1 -.5.5zm-17.762-6.659 17.262 5.476v-20.466l-17.262-5.476z"/><path d="m51.387 71.5a.5.5 0 0 1 -.5-.5v-21.515a.5.5 0 0 1 .349-.477l18.264-5.792a.5.5 0 0 1 .651.477v21.514a.5.5 0 0 1 -.349.477l-18.264 5.793a.5.5 0 0 1 -.151.023zm.5-21.649v20.466l17.263-5.476v-20.466z"/></g><path d="m22.612 36.101-18.262-5.793v-21.515l18.262 5.793z" fill="#fcd462"/><path d="m4.35 8.793 18.262-5.793 18.262 5.793-18.262 5.793z" fill="#fcd462"/><path d="m22.612 15.086a.5.5 0 0 1 -.151-.023l-18.261-5.793a.5.5 0 0 1 0-.953l18.261-5.794a.5.5 0 0 1 .3 0l18.264 5.793a.5.5 0 0 1 0 .953l-18.261 5.794a.5.5 0 0 1 -.152.023zm-16.612-6.293 16.609 5.269 16.612-5.269-16.609-5.269z" fill="#323c6b"/><path d="m22.612 36.101 18.262-5.793v-21.515l-18.262 5.793z" fill="#fcd462"/><path d="m40.875 8.791v21.52l-18.26 5.79v-2.94l15.31-4.85v-18.58z" fill="#f7be56"/><path d="m22.605 33.161v2.94l-18.26-5.79v-3.02z" fill="#f7be56"/><path d="m22.612 36.6a.5.5 0 0 1 -.151-.023l-18.261-5.793a.5.5 0 0 1 -.349-.477v-21.514a.5.5 0 0 1 .649-.477l18.263 5.793a.5.5 0 0 1 .349.477v21.514a.5.5 0 0 1 -.5.5zm-17.762-6.658 17.263 5.476v-20.466l-17.263-5.476z" fill="#323c6b"/><path d="m22.612 36.6a.5.5 0 0 1 -.5-.5v-21.514a.5.5 0 0 1 .349-.477l18.262-5.793a.5.5 0 0 1 .651.477v21.515a.5.5 0 0 1 -.349.477l-18.261 5.792a.5.5 0 0 1 -.152.023zm.5-21.649v20.466l17.262-5.476v-20.465z" fill="#323c6b"/><path d="m47.788 45.889a.61.61 0 0 1 -.168-.024l-6.327-1.84a.6.6 0 0 1 .336-1.152l6.327 1.84a.6.6 0 0 1 -.168 1.176z" fill="#fff"/><path d="m50.395 46.647a.61.61 0 0 1 -.168-.024l-.479-.14a.6.6 0 0 1 .336-1.152l.479.14a.6.6 0 0 1 -.168 1.176z" fill="#fff"/></svg>