<?xml version="1.0" encoding="utf-8"?>
<!-- Generator: Adobe Illustrator 21.0.0, SVG Export Plug-In . SVG Version: 6.00 Build 0)  -->
<svg version="1.1" id="Layer_3" xmlns="http://www.w3.org/2000/svg" xmlns:xlink="http://www.w3.org/1999/xlink" x="0px" y="0px"
	 viewBox="0 0 512 512" style="enable-background:new 0 0 512 512;" xml:space="preserve">
<style type="text/css">
	.st0{fill:#F6CA8D;}
	.st1{fill:#EBBA77;}
	.st2{fill:#4D8EAD;}
	.st3{fill:#66BCE5;}
	.st4{fill:#243F4C;}
	.st5{fill:#325C70;}
</style>
<g>
	<g>
		<path class="st0" d="M80,328L80,328c-30.9,0-64-25.1-64-56v-32c0-30.9,25.1-56,56-56h8"/>
	</g>
	<g>
		<path class="st1" d="M80,323.2c-21.9-8.7-40-28.3-40-51.2v-32c0-25.4,16.9-46.8,40-53.6V323.2z"/>
	</g>
	<g>
		<path class="st1" d="M432,328L432,328c30.9,0,64-25.1,64-56v-32c0-30.9-25.1-56-56-56h-8"/>
	</g>
	<g>
		<path class="st0" d="M432,323.2c21.9-8.7,40-28.3,40-51.2v-32c0-25.4-16.9-46.8-40-53.6V323.2z"/>
	</g>
	<g>
		<ellipse class="st1" cx="256" cy="268" rx="192" ry="188"/>
	</g>
	<g>
		<ellipse class="st0" cx="240" cy="268" rx="176" ry="187.3"/>
	</g>
	<g>
		<path d="M256,464c-110.3,0-200-87.9-200-196S145.7,72,256,72s200,87.9,200,196S366.3,464,256,464z M256,88
			C154.5,88,72,168.8,72,268s82.5,180,184,180s184-80.8,184-180S357.5,88,256,88z"/>
	</g>
	<g>
		<path d="M432,336v-16c25.9,0,56-21,56-48v-32c0-26.5-21.5-48-48-48h-8v-16h8c35.3,0,64,28.7,64,64v32C504,308.6,466,336,432,336z"
			/>
	</g>
	<g>
		<path d="M80,336c-34,0-72-27.4-72-64v-32c0-35.3,28.7-64,64-64h8v16h-8c-26.5,0-48,21.5-48,48v32c0,27,30.1,48,56,48V336z"/>
	</g>
	<g>
		<path d="M256,456.1"/>
	</g>
	<g>
		<path d="M137,418.7"/>
	</g>
	<g>
		<path class="st2" d="M288,475l45.9,17.5c17.2,6.5,36.4,4,51.3-6.9l0,0c19.8-14.3,19.8-44.2,0-58.5l0,0
			c-14.9-10.8-34.1-13.4-51.3-6.9L288,437.7"/>
	</g>
	<g>
		<path class="st3" d="M361.2,427.1L361.2,427.1c-6.1-4.4-13-7.4-20.1-9c-2.4,0.6-4.8,1.2-7.2,2.2L288,437.7V475l45.9,17.5
			c2.4,0.9,4.8,1.6,7.2,2.2c7.1-1.6,14-4.6,20.1-9l0,0C380.9,471.2,380.9,441.4,361.2,427.1z"/>
	</g>
	<g>
		<path class="st2" d="M224,475l-45.9,17.5c-17.2,6.5-36.4,4-51.3-6.9l0,0c-19.8-14.3-19.8-44.2,0-58.5l0,0
			c14.9-10.8,34.1-13.4,51.3-6.9l45.9,17.5"/>
	</g>
	<g>
		<path class="st3" d="M150.8,427.1L150.8,427.1c6.1-4.4,13-7.4,20.1-9c2.4,0.6,4.8,1.2,7.2,2.2l45.9,17.5V475l-45.9,17.5
			c-2.4,0.9-4.8,1.6-7.2,2.2c-7.1-1.6-14-4.6-20.1-9l0,0C131.1,471.2,131.1,441.4,150.8,427.1z"/>
	</g>
	<g>
		<path d="M158.8,504c-13,0-25.8-4-36.6-11.9c-11.5-8.3-18.1-21.3-18.1-35.6c0-14.2,6.5-27.1,17.9-35.4c0.1-0.1,0.2-0.1,0.3-0.2
			c17.1-12.4,39.1-15.3,58.8-7.8l45.9,17.4l-5.7,15L175.3,428c-14.6-5.5-30.8-3.4-43.5,5.7c-0.1,0.1-0.2,0.1-0.2,0.2
			c-7.3,5.3-11.5,13.5-11.5,22.6c0,9.1,4.2,17.4,11.5,22.6c12.8,9.2,29.1,11.4,43.8,5.8l45.9-17.4l5.7,15l-45.9,17.4
			C173.7,502.7,166.2,504,158.8,504z"/>
	</g>
	<g>
		<path d="M272,376h-32c-39.7,0-72-32.3-72-72h16c0,30.9,25.1,56,56,56h32c30.9,0,56-25.1,56-56h16C344,343.7,311.7,376,272,376z"/>
	</g>
	<g>
		<path d="M232,248h-16c0-8.8-7.2-16-16-16s-16,7.2-16,16h-16c0-17.6,14.4-32,32-32S232,230.4,232,248z"/>
	</g>
	<g>
		<path d="M352,248h-16c0-8.8-7.2-16-16-16s-16,7.2-16,16h-16c0-17.6,14.4-32,32-32S352,230.4,352,248z"/>
	</g>
	<g>
		<path d="M264,80h-16V64c0-3-1.2-5.9-3.3-8l-4.7-4.7c-5.2-5.2-8-12-8-19.3s2.8-14.2,8-19.3l10.3-10.3l11.3,11.3L251.3,24
			c-2.1,2.1-3.3,5-3.3,8s1.2,5.9,3.3,8l4.7,4.7c5.2,5.2,8,12,8,19.3V80z"/>
	</g>
	<g>
		<path d="M79.8,454.8"/>
	</g>
	<g>
		<ellipse class="st4" cx="256" cy="456.1" rx="38.4" ry="37.5"/>
	</g>
	<g>
		<ellipse class="st5" cx="244" cy="456.1" rx="26.4" ry="35.4"/>
	</g>
	<g>
		<path d="M256,501.6c-25.6,0-46.4-20.4-46.4-45.5c0-25.1,20.8-45.5,46.4-45.5s46.4,20.4,46.4,45.5
			C302.4,481.2,281.6,501.6,256,501.6z M256,426.7c-16.8,0-30.4,13.2-30.4,29.5s13.6,29.5,30.4,29.5s30.4-13.2,30.4-29.5
			S272.8,426.7,256,426.7z"/>
	</g>
	<g>
		<path d="M353.2,504c-7.5,0-15-1.4-22.2-4.1l-45.9-17.5l5.7-15l45.9,17.5c14.6,5.6,31,3.4,43.7-5.8c7.3-5.3,11.5-13.6,11.5-22.8
			c0-9.2-4.2-17.5-11.5-22.8c-12.7-9.3-29.1-11.4-43.7-5.9l-45.9,17.5l-5.7-15l45.9-17.5c19.7-7.5,41.7-4.6,58.8,7.8
			c11.5,8.4,18.1,21.4,18.1,35.8s-6.6,27.4-18.1,35.7C379,499.9,366.2,504,353.2,504z"/>
	</g>
</g>
</svg>
