<svg height="512" viewBox="0 0 512 512" width="512" xmlns="http://www.w3.org/2000/svg"><g id="filled_outline" data-name="filled outline"><path d="m72 192h32v152h-32z" fill="#ccc"/><path d="m200 192h32v152h-32z" fill="#ccc"/><g fill="#8c6239"><path d="m56 328h64v40h-64z"/><path d="m184 328h64v40h-64z"/><path d="m56 168h64v40h-64z"/><path d="m184 168h64v40h-64z"/></g><path d="m56 168h64v16h-64z" fill="#82542e"/><path d="m184 168h64v16h-64z" fill="#82542e"/><path d="m24 144h184 200l-192-120z" fill="#8c6239"/><circle cx="216" cy="88" fill="#ffe9b3" r="24"/><path d="m24 144h352v32h-352z" fill="#c69c6d"/><path d="m40 360h344v48h-344z" fill="#603813"/><path d="m24 392h384v32h-384z" fill="#42210b"/><rect fill="#c6e9fd" height="344" rx="32" width="208" x="280" y="144"/><path d="m280 431.634v24.366a32 32 0 0 0 32 32h144a32 32 0 0 0 32-32v-226.969a275.377 275.377 0 0 1 -208 202.603z" fill="#abddef"/><path d="m336 144v16a16 16 0 0 0 16 16h64a16 16 0 0 0 16-16v-16z" fill="#808080"/><circle cx="384" cy="312" fill="#ffc841" r="72"/><path d="m228.494 67.506a24 24 0 0 1 -32.988 32.988 24 24 0 1 0 32.988-32.988z" fill="#efd59a"/><path d="m216 56a32 32 0 1 0 32 32 32.036 32.036 0 0 0 -32-32zm0 48a16 16 0 1 1 16-16 16.019 16.019 0 0 1 -16 16z"/><path d="m456 136h-45.7l-190.06-118.784a8 8 0 0 0 -8.48 0l-192 120a7.984 7.984 0 0 0 -3.739 6.784h-.021v32a8 8 0 0 0 8 8h24v24a8 8 0 0 0 8 8h8v104h-8a8 8 0 0 0 -8 8v24h-8a8 8 0 0 0 -8 8v24h-8a8 8 0 0 0 -8 8v32a8 8 0 0 0 8 8h248v24a40.045 40.045 0 0 0 40 40h144a40.045 40.045 0 0 0 40-40v-280a40.045 40.045 0 0 0 -40-40zm-112 16h80v8a8.009 8.009 0 0 1 -8 8h-64a8.009 8.009 0 0 1 -8-8zm-128-118.566 164.105 102.566h-328.205zm-184 118.566h248.022a39.841 39.841 0 0 0 -7.217 16h-240.805zm96 200v-24a8 8 0 0 0 -8-8h-8v-104h8a8 8 0 0 0 8-8v-24h48v24a8 8 0 0 0 8 8h8v104h-8a8 8 0 0 0 -8 8v24zm96-32h-16v-104h16zm-32-120v-16h48v16zm0 136h48v16h-48zm56-16h-8v-104h8a8 8 0 0 0 8-8v-24h16v168h-16v-24a8 8 0 0 0 -8-8zm-136-136v16h-48v-16zm-32 32h16v104h-16zm-16 120h48v16h-48zm-16 32h224v16h-224zm-16 48v-16h240v16zm448 40a24.028 24.028 0 0 1 -24 24h-144a24.028 24.028 0 0 1 -24-24v-280a24.028 24.028 0 0 1 24-24h16v8a24.027 24.027 0 0 0 24 24h64a24.027 24.027 0 0 0 24-24v-8h16a24.028 24.028 0 0 1 24 24z"/><path d="m384 232a80 80 0 1 0 80 80 80.091 80.091 0 0 0 -80-80zm0 144a64 64 0 1 1 64-64 64.072 64.072 0 0 1 -64 64z"/><path d="m384 288a8.009 8.009 0 0 1 8 8h16a24.039 24.039 0 0 0 -16-22.624v-9.376h-16v9.376a24 24 0 0 0 8 46.624 8 8 0 1 1 -8 8h-16a24.039 24.039 0 0 0 16 22.624v9.376h16v-9.376a24 24 0 0 0 -8-46.624 8 8 0 0 1 0-16z"/><path d="m360 448h48v16h-48z"/></g></svg>