<?xml version="1.0" encoding="utf-8"?>
<!-- Generator: Adobe Illustrator 22.0.1, SVG Export Plug-In . SVG Version: 6.00 Build 0)  -->
<svg xmlns="http://www.w3.org/2000/svg" xmlns:xlink="http://www.w3.org/1999/xlink" version="1.1" id="Layer_1" x="0px" y="0px" viewBox="0 0 256 256" style="enable-background:new 0 0 256 256;" xml:space="preserve" width="512" height="512">
<style type="text/css">
	.st0{fill:#3A312A;}
	.st1{fill:#D7E057;}
	.st2{fill:#F16C7A;}
	.st3{fill:#FCE8CB;}
	.st4{fill:#87796F;}
	.st5{fill:#8AC6DD;}
	.st6{fill:#CE4E61;}
	.st7{fill:#6CA8BF;}
	.st8{fill:#B9C239;}
	.st9{fill:#DECAAD;}
	.st10{fill:#695B51;}
	.st11{fill-rule:evenodd;clip-rule:evenodd;fill:#FCE8CB;}
	.st12{fill:#F5978A;}
	.st13{fill:#68A8BC;}
	.st14{fill:#B9BC39;}
	.st15{fill:#6B5B51;}
	.st16{fill:#D34E5C;}
	.st17{fill-rule:evenodd;clip-rule:evenodd;fill:#87796F;}
	.st18{fill-rule:evenodd;clip-rule:evenodd;fill:#F16C7A;}
</style>
<g>
	<g>
		<g>
			<path class="st5" d="M201.799,73.156h-2.794c-1.638-7.159-4.492-13.853-8.337-19.854l2.056-2.055     c2.369-2.369,2.369-6.209,0-8.577l-10.92-10.92c-2.369-2.369-6.209-2.369-8.577,0l-2.133,2.133     c-5.988-3.772-12.655-6.564-19.776-8.153v-3.055c0-3.35-2.715-6.065-6.065-6.065h-15.443c-3.35,0-6.065,2.715-6.065,6.065v3.055     c-2.108,0.47-4.17,1.058-6.193,1.733c-4.35,1.401-9.551,4.095-9.551,4.095c-1.373,0.729-2.722,1.499-4.032,2.324l-2.133-2.133     c-2.369-2.369-6.209-2.369-8.577,0l-10.92,10.92c-2.369,2.369-2.369,6.209,0,8.577l2.056,2.055     c-3.844,6-6.699,12.695-8.337,19.854h-2.794c-3.35,0-6.065,2.715-6.065,6.065v15.443c0,3.35,2.715,6.065,6.065,6.065h2.649     c1.575,7.247,4.394,14.029,8.225,20.11l-1.799,1.799c-2.369,2.368-2.369,6.209,0,8.577l10.92,10.92     c2.369,2.369,6.209,2.369,8.577,0l1.722-1.722c6.093,3.904,12.903,6.785,20.187,8.409v2.388c0,3.35,2.715,6.065,6.065,6.065     h15.443c3.35,0,6.065-2.715,6.065-6.065v-2.388c7.284-1.625,14.094-4.505,20.187-8.409l1.722,1.722     c2.369,2.369,6.209,2.369,8.577,0l10.92-10.92c2.369-2.369,2.369-6.209,0-8.577l-1.799-1.799     c3.831-6.082,6.651-12.863,8.225-20.11h2.649c3.35,0,6.065-2.715,6.065-6.065V79.221     C207.864,75.872,205.149,73.156,201.799,73.156z M137.531,118.474c-17.414,0-31.531-14.117-31.531-31.531     s14.117-31.531,31.531-31.531c17.414,0,31.531,14.117,31.531,31.531S154.945,118.474,137.531,118.474z"/>
		</g>
	</g>
	<g>
		<g>
			<path class="st0" d="M201.799,71.656h-1.61c-1.592-6.409-4.149-12.5-7.615-18.138l1.21-1.21c1.429-1.428,2.216-3.328,2.216-5.349     c0-2.021-0.787-3.92-2.216-5.349l-10.92-10.92c-2.949-2.95-7.748-2.949-10.699,0l-1.293,1.294     c-5.623-3.399-11.686-5.898-18.054-7.444v-1.864c0-4.171-3.394-7.565-7.565-7.565h-15.444c-4.171,0-7.565,3.394-7.565,7.565     v1.866c-1.686,0.413-3.417,0.916-5.152,1.495c-4.418,1.422-9.565,4.078-9.782,4.19c-0.004,0.002-0.009,0.005-0.014,0.007     c-1.107,0.588-2.133,1.166-3.106,1.751l-1.295-1.295c-1.428-1.429-3.328-2.216-5.349-2.216c-2.02,0-3.92,0.787-5.349,2.216     l-10.92,10.92c-1.429,1.429-2.216,3.329-2.216,5.349c0,2.021,0.787,3.921,2.216,5.349l1.21,1.21     c-3.466,5.638-6.023,11.729-7.615,18.138h-1.61c-4.171,0-7.565,3.394-7.565,7.565v15.443c0,4.171,3.393,7.565,7.565,7.565h1.452     c1.539,6.492,4.065,12.668,7.523,18.389l-0.96,0.96c-2.95,2.95-2.95,7.749,0,10.699l10.92,10.92     c1.429,1.429,3.329,2.216,5.349,2.216c2.021,0,3.921-0.787,5.349-2.215l0.877-0.877c5.733,3.525,11.936,6.108,18.472,7.694v1.197     c0,4.171,3.394,7.565,7.565,7.565h15.444c4.171,0,7.565-3.394,7.565-7.565v-1.197c6.536-1.586,12.739-4.169,18.472-7.694     l0.876,0.876c2.949,2.95,7.75,2.951,10.699,0l10.92-10.92c2.95-2.95,2.95-7.749,0-10.699l-0.96-0.96     c3.458-5.721,5.984-11.896,7.523-18.389h1.452c4.171,0,7.565-3.394,7.565-7.565V79.221     C209.364,75.05,205.971,71.656,201.799,71.656z M206.364,94.665c0,2.517-2.048,4.565-4.565,4.565h-2.649     c-0.706,0-1.316,0.492-1.466,1.182c-1.515,6.974-4.216,13.578-8.028,19.629c-0.374,0.592-0.287,1.365,0.208,1.86l1.799,1.799     c1.78,1.78,1.78,4.676,0,6.457l-10.92,10.92c-1.779,1.78-4.675,1.781-6.457,0l-1.722-1.722c-0.498-0.498-1.275-0.582-1.87-0.203     c-6.058,3.882-12.688,6.644-19.705,8.208c-0.685,0.153-1.173,0.761-1.173,1.464v2.388c0,2.517-2.048,4.565-4.565,4.565h-15.444     c-2.517,0-4.565-2.048-4.565-4.565v-2.388c0-0.703-0.488-1.311-1.173-1.464c-7.017-1.565-13.646-4.327-19.705-8.208     c-0.248-0.159-0.529-0.237-0.809-0.237c-0.387,0-0.771,0.15-1.061,0.439l-1.722,1.722c-0.862,0.862-2.008,1.337-3.228,1.337     c-1.219,0-2.366-0.475-3.228-1.337l-10.92-10.92c-0.862-0.862-1.337-2.009-1.337-3.229c0-1.219,0.475-2.366,1.337-3.228     l1.799-1.799c0.496-0.495,0.582-1.268,0.208-1.86c-3.812-6.051-6.513-12.656-8.028-19.629c-0.15-0.69-0.76-1.182-1.466-1.182     h-2.649c-2.517,0-4.565-2.048-4.565-4.565V79.221c0-2.517,2.048-4.565,4.565-4.565h2.794c0.7,0,1.306-0.483,1.462-1.166     c1.576-6.891,4.314-13.411,8.138-19.379c0.38-0.593,0.296-1.372-0.203-1.87l-2.056-2.056c-0.862-0.862-1.337-2.008-1.337-3.228     c0-1.219,0.475-2.366,1.337-3.228l10.92-10.92c0.862-0.862,2.009-1.337,3.228-1.337c1.22,0,2.366,0.475,3.228,1.337l2.133,2.133     c0.496,0.495,1.267,0.582,1.86,0.208c1.21-0.763,2.496-1.503,3.929-2.265c0.206-0.106,5.199-2.67,9.33-4     c2.059-0.688,4.093-1.257,6.044-1.692c0.686-0.153,1.173-0.761,1.173-1.464v-3.055c0-2.517,2.048-4.565,4.565-4.565h15.444     c2.517,0,4.565,2.048,4.565,4.565v3.055c0,0.703,0.488,1.311,1.173,1.464c6.851,1.528,13.346,4.206,19.304,7.958     c0.592,0.374,1.366,0.287,1.86-0.208l2.132-2.133c0.862-0.862,2.009-1.337,3.228-1.337c1.22,0,2.366,0.475,3.229,1.337     l10.92,10.92c0.862,0.862,1.337,2.009,1.337,3.228c0,1.22-0.475,2.366-1.337,3.228l-2.056,2.056     c-0.499,0.498-0.583,1.276-0.203,1.87c3.824,5.968,6.562,12.488,8.138,19.379c0.156,0.682,0.763,1.166,1.462,1.166h2.794     c2.517,0,4.565,2.048,4.565,4.565V94.665z M137.531,53.912c-18.213,0-33.031,14.818-33.031,33.031     c0,18.214,14.818,33.032,33.031,33.032c18.214,0,33.032-14.818,33.032-33.032C170.563,68.729,155.745,53.912,137.531,53.912z      M137.531,116.975c-16.559,0-30.031-13.472-30.031-30.032c0-16.559,13.472-30.031,30.031-30.031     c16.559,0,30.032,13.472,30.032,30.031C167.563,103.502,154.09,116.975,137.531,116.975z"/>
		</g>
	</g>
	<g>
		<g>
			<path class="st2" d="M222.67,87.158H52.392c-3.169,0-5.738,2.569-5.738,5.738v14.656c0,3.169,2.569,5.738,5.738,5.738H222.67     c3.169,0,5.738-2.569,5.738-5.738V92.896C228.408,89.727,225.839,87.158,222.67,87.158z"/>
		</g>
	</g>
	<g>
		<g>
			<path class="st0" d="M222.67,85.658H96.892c-0.829,0-1.5,0.671-1.5,1.5s0.671,1.5,1.5,1.5H222.67     c2.337,0,4.238,1.901,4.238,4.238v14.656c0,2.337-1.901,4.238-4.238,4.238H52.392c-2.337,0-4.238-1.901-4.238-4.238V92.896     c0-2.337,1.901-4.238,4.238-4.238h29.801c0.829,0,1.5-0.671,1.5-1.5s-0.671-1.5-1.5-1.5H52.392c-3.991,0-7.238,3.247-7.238,7.238     v14.656c0,3.991,3.247,7.238,7.238,7.238H222.67c3.991,0,7.238-3.247,7.238-7.238V92.896     C229.908,88.905,226.661,85.658,222.67,85.658z"/>
		</g>
	</g>
	<g>
		<g>
			<path class="st2" d="M56.802,113.29v119.893c0,3.528,2.86,6.387,6.388,6.387h145.978c3.528,0,6.388-2.86,6.388-6.387V113.29     H56.802z"/>
		</g>
	</g>
	<g>
		<g>
			<path class="st0" d="M215.554,111.79H56.802c-0.829,0-1.5,0.671-1.5,1.5v24.006c0,0.829,0.671,1.5,1.5,1.5     c0.829,0,1.5-0.671,1.5-1.5V114.79h155.752v118.393c0,2.695-2.192,4.888-4.887,4.888H63.189c-2.695,0-4.887-2.192-4.887-4.888     v-81.299c0-0.829-0.671-1.5-1.5-1.5c-0.829,0-1.5,0.671-1.5,1.5v81.299c0,4.349,3.538,7.888,7.887,7.888h145.978     c4.349,0,7.887-3.539,7.887-7.888V113.29C217.054,112.461,216.383,111.79,215.554,111.79z"/>
		</g>
	</g>
	<g>
		<g>
			<rect x="107.952" y="87.158" class="st1" width="60.788" height="26.132"/>
		</g>
	</g>
	<g>
		<g>
			<path class="st0" d="M168.74,85.658h-60.788c-0.829,0-1.5,0.671-1.5,1.5v26.132c0,0.829,0.671,1.5,1.5,1.5h60.788     c0.829,0,1.5-0.671,1.5-1.5V87.158C170.24,86.33,169.569,85.658,168.74,85.658z M167.24,111.79h-57.788V88.658h57.788V111.79z"/>
		</g>
	</g>
	<g>
		<g>
			<polygon class="st1" points="107.952,113.307 107.952,153.584 126.392,140.543 132.641,153.584 140.112,146.792 148.805,153.584      158.315,146.045 168.74,153.584 168.74,113.307    "/>
		</g>
	</g>
	<g>
		<g>
			<path class="st0" d="M168.74,111.808h-60.788c-0.829,0-1.5,0.671-1.5,1.5v40.276c0,0.561,0.313,1.074,0.81,1.332     c0.498,0.258,1.098,0.217,1.556-0.107l16.989-12.014l5.481,11.438c0.205,0.428,0.6,0.733,1.065,0.824     c0.096,0.019,0.192,0.028,0.288,0.028c0.37,0,0.73-0.137,1.009-0.39l6.536-5.941l7.697,6.014     c0.546,0.426,1.313,0.423,1.855-0.007l8.618-6.833l9.505,6.873c0.456,0.33,1.06,0.376,1.562,0.121     c0.501-0.256,0.817-0.772,0.817-1.336v-40.276C170.24,112.479,169.569,111.808,168.74,111.808z M167.24,150.648l-8.047-5.819     c-0.544-0.393-1.284-0.378-1.811,0.04l-8.583,6.806l-7.764-6.065c-0.272-0.212-0.598-0.318-0.923-0.318     c-0.362,0-0.724,0.131-1.009,0.39l-5.98,5.437l-5.378-11.223c-0.191-0.399-0.548-0.693-0.975-0.804     c-0.429-0.11-0.883-0.028-1.244,0.227l-16.074,11.367v-35.878h57.788V150.648z"/>
		</g>
	</g>
	<g>
		<g>
			<path class="st4" d="M123.064,214.168H75.656c-1.951,0-3.532,1.581-3.532,3.532v3.803c0,1.951,1.581,3.532,3.532,3.532h47.408     c1.951,0,3.532-1.581,3.532-3.532V217.7C126.596,215.75,125.014,214.168,123.064,214.168z"/>
		</g>
	</g>
	<g>
		<g>
			<path class="st0" d="M123.064,212.668H75.656c-2.775,0-5.032,2.257-5.032,5.032v3.804c0,2.774,2.257,5.032,5.032,5.032h47.408     c2.774,0,5.032-2.257,5.032-5.032V217.7C128.096,214.926,125.838,212.668,123.064,212.668z M125.096,221.504     c0,1.12-0.912,2.032-2.032,2.032H75.656c-1.12,0-2.032-0.912-2.032-2.032V217.7c0-1.12,0.912-2.032,2.032-2.032h47.408     c1.12,0,2.032,0.912,2.032,2.032V221.504z"/>
		</g>
	</g>
	<g>
		<g>
			<path class="st1" d="M57.226,26.106c-0.974,11.564-13.025,13.39-13.025,13.39c10.347,0.487,12.925,14.059,12.925,14.059     c0.221-9.677,13.321-14.202,13.321-14.202C60.634,38.766,57.226,26.106,57.226,26.106z"/>
		</g>
	</g>
	<g>
		<g>
			<path class="st0" d="M70.537,37.855c-8.604-0.514-11.831-12.024-11.863-12.14c-0.19-0.702-0.848-1.159-1.583-1.102     c-0.725,0.066-1.298,0.642-1.359,1.367c-0.86,10.215-11.313,11.963-11.754,12.032c-0.763,0.115-1.313,0.79-1.273,1.561     c0.04,0.77,0.657,1.384,1.427,1.421c9.028,0.425,11.499,12.718,11.523,12.842c0.137,0.711,0.759,1.217,1.472,1.217     c0.042,0,0.084-0.001,0.126-0.005c0.764-0.064,1.357-0.693,1.375-1.459c0.194-8.508,12.191-12.777,12.313-12.819     c0.675-0.235,1.092-0.915,0.994-1.623C71.835,38.439,71.251,37.898,70.537,37.855z M56.972,48.201     c-1.357-3.13-3.709-6.907-7.587-8.876c2.931-1.405,6.409-3.913,8.202-8.273c1.551,3.071,4.2,6.88,8.334,8.722     C62.913,41.414,58.998,44.18,56.972,48.201z"/>
		</g>
	</g>
	<g>
		<g>
			<path class="st1" d="M35.527,43.087c-0.689,8.179-9.212,9.471-9.212,9.471c7.318,0.344,9.142,9.944,9.142,9.944     c0.156-6.845,9.422-10.046,9.422-10.046C37.938,52.041,35.527,43.087,35.527,43.087z"/>
		</g>
	</g>
	<g>
		<g>
			<path class="st0" d="M44.969,50.958c-5.766-0.345-7.972-8.185-7.994-8.264c-0.19-0.702-0.852-1.165-1.582-1.102     c-0.726,0.065-1.299,0.642-1.36,1.368c-0.579,6.871-7.646,8.067-7.942,8.114c-0.763,0.115-1.313,0.79-1.273,1.561     c0.04,0.77,0.657,1.384,1.428,1.421c6.035,0.284,7.723,8.644,7.739,8.725c0.135,0.713,0.759,1.22,1.472,1.22     c0.042,0,0.083-0.001,0.125-0.005c0.765-0.063,1.358-0.694,1.376-1.461c0.13-5.709,8.332-8.634,8.413-8.662     c0.677-0.234,1.094-0.913,0.996-1.622C46.268,51.543,45.684,51.001,44.969,50.958z M35.384,57.754     c-0.924-1.886-2.34-3.947-4.447-5.28c1.856-1.041,3.697-2.63,4.87-4.917c1.057,1.874,2.654,3.955,4.941,5.224     C38.899,53.882,36.76,55.521,35.384,57.754z"/>
		</g>
	</g>
	<g>
		<g>
			<path class="st1" d="M35.527,16.429c-0.689,8.179-9.212,9.47-9.212,9.47c7.318,0.344,9.142,9.944,9.142,9.944     c0.156-6.844,9.422-10.045,9.422-10.045C37.938,25.383,35.527,16.429,35.527,16.429z"/>
		</g>
	</g>
	<g>
		<g>
			<path class="st0" d="M44.969,24.301c-5.767-0.345-7.973-8.186-7.994-8.265c-0.19-0.702-0.852-1.166-1.582-1.102     c-0.726,0.065-1.299,0.642-1.36,1.368c-0.579,6.871-7.646,8.067-7.942,8.114c-0.763,0.115-1.313,0.79-1.273,1.561     c0.04,0.77,0.657,1.384,1.428,1.421c6.035,0.284,7.723,8.644,7.739,8.726c0.135,0.713,0.759,1.22,1.472,1.22     c0.042,0,0.083-0.001,0.125-0.005c0.765-0.063,1.358-0.694,1.376-1.461c0.13-5.709,8.332-8.634,8.413-8.662     c0.676-0.234,1.094-0.913,0.996-1.622C46.268,24.886,45.684,24.344,44.969,24.301z M35.384,31.096     c-0.924-1.885-2.34-3.947-4.447-5.28c1.856-1.041,3.697-2.63,4.871-4.916c1.057,1.874,2.655,3.954,4.941,5.224     C38.899,27.225,36.76,28.864,35.384,31.096z"/>
		</g>
	</g>
	<g>
		<g>
			<path class="st16" d="M222.671,88.66h-15c2.34,0,4.24,1.9,4.24,4.24v14.65c0,2.34-1.9,4.24-4.24,4.24h15     c2.34,0,4.24-1.9,4.24-4.24V92.9C226.911,90.56,225.011,88.66,222.671,88.66z"/>
		</g>
	</g>
	<g>
		<g>
			<path class="st16" d="M199.051,114.79v118.39c0,2.7-2.19,4.89-4.88,4.89h15c2.69,0,4.88-2.19,4.88-4.89V114.79H199.051z"/>
		</g>
	</g>
</g>
</svg>
