<svg height="496pt" viewBox="0 0 496 496" width="496pt" xmlns="http://www.w3.org/2000/svg"><path d="m120 432-44.398438 44.398438c-7.441406 7.441406-17.523437 11.601562-28 11.601562-10.960937 0-20.800781-4.480469-28-11.601562-7.121093-7.199219-11.601562-17.039063-11.601562-28 0-10.476563 4.160156-20.550782 11.601562-28l44.398438-44.398438zm0 0" fill="#ccd1d9"/><path d="m72 440c0 8.835938-7.164062 16-16 16s-16-7.164062-16-16 7.164062-16 16-16 16 7.164062 16 16zm0 0" fill="#e6e9ed"/><g fill="#ccd1d9"><path d="m88 351.996094 32-32 55.996094 55.996094-32 32zm0 0"/><path d="m144 295.996094 32-32 55.996094 55.996094-32 32zm0 0"/><path d="m200 239.996094 32-32 55.996094 55.996094-32 32zm0 0"/><path d="m256 183.996094 32-32 55.996094 55.996094-32 32zm0 0"/></g><path d="m155.039062 419.039062c3.199219 3.199219 4.960938 7.519532 4.960938 12 0 4.640626-1.921875 8.960938-4.960938 12-3.039062 3.039063-7.359374 4.960938-12 4.960938-4.480468 0-8.800781-1.761719-12-4.960938l-78.078124-78.078124c-3.199219-3.199219-4.960938-7.519532-4.960938-12 0-9.359376 7.601562-16.960938 16.960938-16.960938 4.480468 0 8.800781 1.761719 12 4.960938zm0 0" fill="#fcd770"/><path d="m211.039062 363.039062c3.199219 3.199219 4.960938 7.519532 4.960938 12 0 4.640626-1.921875 8.960938-4.960938 12-3.039062 3.039063-7.359374 4.960938-12 4.960938-4.480468 0-8.800781-1.761719-12-4.960938l-78.078124-78.078124c-3.199219-3.199219-4.960938-7.519532-4.960938-12 0-9.359376 7.601562-16.960938 16.960938-16.960938 4.480468 0 8.800781 1.761719 12 4.960938zm0 0" fill="#fcd770"/><path d="m267.039062 307.039062c3.199219 3.199219 4.960938 7.519532 4.960938 12 0 4.640626-1.921875 8.960938-4.960938 12-3.039062 3.039063-7.359374 4.960938-12 4.960938-4.480468 0-8.800781-1.761719-12-4.960938l-78.078124-78.078124c-3.199219-3.199219-4.960938-7.519532-4.960938-12 0-9.359376 7.601562-16.960938 16.960938-16.960938 4.480468 0 8.800781 1.761719 12 4.960938zm0 0" fill="#fcd770"/><path d="m323.039062 251.039062c3.199219 3.199219 4.960938 7.519532 4.960938 12 0 4.640626-1.921875 8.960938-4.960938 12-3.039062 3.039063-7.359374 4.960938-12 4.960938-4.480468 0-8.800781-1.761719-12-4.960938l-78.078124-78.078124c-3.199219-3.199219-4.960938-7.519532-4.960938-12 0-9.359376 7.601562-16.960938 16.960938-16.960938 4.480468 0 8.800781 1.761719 12 4.960938zm0 0" fill="#fcd770"/><path d="m428.398438 180.398438-68.398438 43.601562-88-88 43.601562-68.398438zm0 0" fill="#e6e9ed"/><path d="m438.238281 126.238281-68.476562-68.476562c-.5625-.554688-1.203125-1.195313-1.839844-1.683594l33.199219-33.199219c9.519531-9.519531 22.480468-14.878906 36-14.878906 14.078125 0 26.71875 5.679688 36 14.878906 9.199218 9.273438 14.878906 21.921875 14.878906 36 0 13.511719-5.359375 26.472656-14.878906 36l-33.199219 33.199219c-.480469-.636719-1.121094-1.277344-1.683594-1.839844zm0 0" fill="#ccd1d9"/><path d="m456 56c0 8.835938-7.164062 16-16 16s-16-7.164062-16-16 7.164062-16 16-16 16 7.164062 16 16zm0 0" fill="#e6e9ed"/><path d="m439.921875 128.078125c5.199219 6 8.078125 13.683594 8.078125 21.683594 0 11.359375-5.839844 21.917969-15.359375 28l-4.242187 2.636719-112.796876-112.796876 2.636719-4.242187c6.082031-9.511719 16.640625-15.359375 28-15.359375 8 0 15.683594 2.878906 21.683594 8.078125.636719.488281 1.277344 1.128906 1.839844 1.683594l68.476562 68.484375c.5625.554687 1.203125 1.195312 1.683594 1.832031zm0 0" fill="#ff826e"/><path d="m56 416c-13.230469 0-24 10.769531-24 24s10.769531 24 24 24 24-10.769531 24-24-10.769531-24-24-24zm0 32c-4.40625 0-8-3.585938-8-8s3.59375-8 8-8 8 3.585938 8 8-3.59375 8-8 8zm0 0" fill="#1e1713"/><path d="m496 58.910156c0-32.476562-26.425781-58.910156-58.910156-58.910156-15.738282 0-30.53125 6.128906-41.65625 17.257812l-28.496094 28.484376c-6.234375-3.644532-13.28125-5.742188-20.699219-5.742188-14.167969 0-27.167969 7.136719-34.773437 19.089844l-49.65625 78.03125 14.878906 14.878906-20.6875 20.6875-5.375-5.375c-4.714844-4.71875-10.984375-7.3125-17.65625-7.3125-13.769531 0-24.96875 11.199219-24.96875 24.96875 0 6.574219 2.664062 13.007812 7.3125 17.65625l5.375 5.375-20.6875 20.6875-5.375-5.375c-4.714844-4.71875-10.984375-7.3125-17.65625-7.3125-13.769531 0-24.96875 11.199219-24.96875 24.96875 0 6.574219 2.664062 13.007812 7.3125 17.65625l5.375 5.375-20.6875 20.6875-5.375-5.375c-4.714844-4.71875-10.984375-7.3125-17.65625-7.3125-13.769531 0-24.96875 11.199219-24.96875 24.96875 0 6.574219 2.664062 13.007812 7.3125 17.65625l5.375 5.375-20.6875 20.6875-5.375-5.375c-4.714844-4.71875-10.984375-7.3125-17.65625-7.3125-13.769531 0-24.96875 11.199219-24.96875 24.96875 0 6.574219 2.664062 13.007812 7.3125 17.65625l5.375 5.375-38.742188 38.753906c-8.992187 8.980469-13.945312 20.933594-13.945312 33.652344 0 26.242188 21.351562 47.59375 47.601562 47.59375 12.710938 0 24.664063-4.945312 33.65625-13.9375l38.742188-38.75 5.375 5.375c4.714844 4.71875 10.984375 7.3125 17.65625 7.3125 13.769531 0 24.96875-11.199219 24.96875-24.96875 0-6.574219-2.664062-13.007812-7.3125-17.65625l-5.375-5.375 20.6875-20.6875 5.375 5.375c4.714844 4.71875 10.984375 7.3125 17.65625 7.3125 13.769531 0 24.96875-11.199219 24.96875-24.96875 0-6.574219-2.664062-13.007812-7.3125-17.65625l-5.375-5.375 20.6875-20.6875 5.375 5.375c4.714844 4.71875 10.984375 7.3125 17.65625 7.3125 13.769531 0 24.96875-11.199219 24.96875-24.96875 0-6.574219-2.664062-13.007812-7.3125-17.65625l-5.375-5.375 20.6875-20.6875 5.375 5.375c4.714844 4.71875 10.984375 7.3125 17.65625 7.3125 13.769531 0 24.96875-11.199219 24.96875-24.96875 0-6.574219-2.664062-13.007812-7.3125-17.65625l-5.375-5.375 20.6875-20.6875 14.878906 14.878906 78.023438-49.65625c11.960937-7.597656 19.097656-20.597656 19.097656-34.773437 0-7.417969-2.097656-14.457031-5.753906-20.699219l28.496094-28.488281c11.128906-11.125 17.257812-25.925781 17.257812-41.664063zm-426.054688 411.84375c-5.96875 5.957032-13.90625 9.246094-22.34375 9.246094-17.425781 0-31.601562-14.167969-31.601562-31.59375 0-8.445312 3.289062-16.375 9.257812-22.34375l38.742188-38.75 44.6875 44.6875zm73.085938-30.753906c-2.398438 0-4.648438-.929688-6.34375-2.625l-78.0625-78.0625c-1.664062-1.671875-2.625-3.984375-2.625-6.34375 0-4.945312 4.023438-8.96875 8.96875-8.96875 2.398438 0 4.648438.929688 6.34375 2.625l78.0625 78.0625c1.664062 1.671875 2.625 3.984375 2.625 6.34375 0 4.945312-4.023438 8.96875-8.96875 8.96875zm.96875-43.3125-44.6875-44.6875 20.6875-20.6875 44.6875 44.6875zm55.03125-12.6875c-2.398438 0-4.648438-.929688-6.34375-2.625l-78.0625-78.0625c-1.664062-1.671875-2.625-3.984375-2.625-6.34375 0-4.945312 4.023438-8.96875 8.96875-8.96875 2.398438 0 4.648438.929688 6.34375 2.625l78.0625 78.0625c1.664062 1.671875 2.625 3.984375 2.625 6.34375 0 4.945312-4.023438 8.96875-8.96875 8.96875zm.96875-43.3125-44.6875-44.6875 20.6875-20.6875 44.6875 44.6875zm55.03125-12.6875c-2.398438 0-4.648438-.929688-6.34375-2.625l-78.0625-78.0625c-1.664062-1.671875-2.625-3.984375-2.625-6.34375 0-4.945312 4.023438-8.96875 8.96875-8.96875 2.398438 0 4.648438.929688 6.34375 2.625l78.0625 78.0625c1.664062 1.671875 2.625 3.984375 2.625 6.34375 0 4.945312-4.023438 8.96875-8.96875 8.96875zm.96875-43.3125-44.6875-44.6875 20.6875-20.6875 44.6875 44.6875zm55.03125-12.6875c-2.398438 0-4.648438-.929688-6.34375-2.625l-78.0625-78.0625c-1.664062-1.671875-2.625-3.984375-2.625-6.34375 0-4.945312 4.023438-8.96875 8.96875-8.96875 2.398438 0 4.648438.929688 6.34375 2.625l78.0625 78.0625c1.664062 1.671875 2.625 3.984375 2.625 6.34375 0 4.945312-4.023438 8.96875-8.96875 8.96875zm.96875-43.3125-44.6875-44.6875 20.6875-20.6875 44.6875 44.6875zm-29.808594-93.808594 34.753906-54.621094 98.78125 98.78125-54.613281 34.761719zm147.242188 35.242188-103.554688-103.554688c4.738282-6.582031 12.183594-10.566406 20.359375-10.566406 6.738281 0 13.074219 2.625 17.832031 7.390625l68.539063 68.53125c4.765625 4.765625 7.390625 11.101563 7.390625 17.847656 0 8.175781-3.984375 15.613281-10.566406 20.351563zm10.566406-53.433594-60.6875-60.6875 27.429688-27.433594c8.105468-8.101562 18.890624-12.566406 30.347656-12.566406 23.664062 0 42.910156 19.246094 42.910156 42.910156 0 11.464844-4.464844 22.242188-12.566406 30.347656zm0 0" fill="#1e1713"/><path d="m440 32c-13.230469 0-24 10.769531-24 24s10.769531 24 24 24 24-10.769531 24-24-10.769531-24-24-24zm0 32c-4.40625 0-8-3.585938-8-8s3.59375-8 8-8 8 3.585938 8 8-3.59375 8-8 8zm0 0" fill="#1e1713"/></svg>