<svg id="Capa_1" enable-background="new 0 0 512 512" height="512" viewBox="0 0 512 512" width="512" xmlns="http://www.w3.org/2000/svg" xmlns:xlink="http://www.w3.org/1999/xlink"><linearGradient id="SVGID_1_" gradientUnits="userSpaceOnUse" x1="256" x2="256" y1="346" y2="136"><stop offset="0" stop-color="#fd3a84"/><stop offset="1" stop-color="#ffa68d"/></linearGradient><linearGradient id="SVGID_2_" gradientUnits="userSpaceOnUse" x1="225.5" x2="225.5" y1="376" y2="166"><stop offset="0" stop-color="#ffc2cc"/><stop offset="1" stop-color="#fff2f4"/></linearGradient><g><g><g><path d="m507.605 260.395c-40.699-40.699-95.565-63.333-152.978-64.224-22.25-37.23-61.788-60.171-105.702-60.171-50.804 0-99.24 17.904-137.917 50.31l-26.688-17.79c-2.461-1.641-5.361-2.52-8.32-2.52h-61c-8.291 0-15 6.709-15 15v45l30 14.59-30 15.402v45.008c0 3.984 1.582 7.793 4.395 10.605l30 30c2.812 2.813 7.621 4.395 11.605 4.395h451c8.291 0 15-6.709 15-15v-60c0-3.984-1.582-7.793-4.395-10.605z" fill="url(#SVGID_1_)"/></g></g><g><g><path d="m406 286c-24.814 0-45 20.186-45 45s20.186 45 45 45 45-20.186 45-45-20.186-45-45-45zm0 60c-8.276 0-15-6.724-15-15s6.724-15 15-15 15 6.724 15 15-6.724 15-15 15zm-270-60c-24.814 0-45 20.186-45 45s20.186 45 45 45 45-20.186 45-45-20.186-45-45-45zm0 60c-8.276 0-15-6.724-15-15s6.724-15 15-15 15 6.724 15 15-6.724 15-15 15zm112.925-180c-40.644 0-79.178 13.867-111.211 38.115l32.827 21.885h139.248l17.412-17.411c-17.145-26.448-46.194-42.589-78.276-42.589zm-203.013 60.003-45.912-.003v29.992l46.088.002c8.276-.044 14.956-6.787 14.912-15.078s-7.925-15.088-15.088-14.913z" fill="url(#SVGID_2_)"/></g></g></g></svg>