<svg width="512" height="512" viewBox="0 0 512 512" fill="none" xmlns="http://www.w3.org/2000/svg">
<path d="M124.008 328.032C139.448 328.032 152.008 315.472 152.008 300.032C152.008 284.592 139.448 272.032 124.008 272.032C108.568 272.032 96.008 284.592 96.008 300.032C96.008 315.472 108.568 328.032 124.008 328.032V328.032ZM124.008 288.032C130.624 288.032 136.008 293.416 136.008 300.032C136.008 306.648 130.624 312.032 124.008 312.032C117.392 312.032 112.008 306.648 112.008 300.032C112.008 293.416 117.392 288.032 124.008 288.032V288.032Z" fill="white"/>
<path d="M456 504V472C456 467.576 452.424 464 448 464C443.584 464 440 460.416 440 456C440 451.576 436.424 448 432 448H80C75.576 448 72 451.576 72 456C72 460.416 68.416 464 64 464C59.576 464 56 467.576 56 472V504C56 508.424 59.576 512 64 512C68.424 512 72 508.424 72 504V478.52C78.784 476.104 84.112 470.776 86.52 464H425.472C427.888 470.784 433.216 476.112 439.992 478.52V504C439.992 508.424 443.568 512 447.992 512C452.416 512 456 508.424 456 504V504Z" fill="white"/>
<path d="M8 424H16V504C16 508.424 19.576 512 24 512C28.424 512 32 508.424 32 504V424H480V504C480 508.424 483.576 512 488 512C492.424 512 496 508.424 496 504V424H504C508.424 424 512 420.424 512 416V384C512 379.576 508.424 376 504 376H496V328C496 297.128 470.872 272 440 272C440 272 440 272 439.992 272L416 272.016V259.016C444.64 242.392 463.992 211.472 464 176.04C464 176.032 464 176.032 464 176.032V104C464 80.264 446.664 60.544 424 56.72V32C424 27.576 420.424 24 416 24H352C351.96 24 351.928 24.024 351.896 24.024C307.832 24.08 272 59.936 272 104V176.016C272 211.456 291.352 242.392 320 259.016V272.016L296.008 272C296 272 296 272 296 272C265.128 272 240 297.128 240 328V344.032H232.008V232.032C232.008 218.8 221.24 208.032 208.008 208.032H40.008C26.776 208.032 16.008 218.8 16.008 232.032V368.016C16.008 370.832 16.584 373.496 17.48 376H8C3.576 376 0 379.576 0 384V416C0 420.424 3.576 424 8 424V424ZM352 40.016C352.032 40.016 352.048 40 352.08 40H408V64C408 68.424 411.576 72 416 72C433.648 72 448 86.352 448 104V124.688L437.656 114.344C437.544 114.232 437.408 114.2 437.296 114.112C436.872 113.728 436.408 113.472 435.928 113.2C435.488 112.952 435.088 112.68 434.624 112.512C434.144 112.344 433.664 112.312 433.168 112.232C432.648 112.152 432.144 112.056 431.624 112.072C431.136 112.096 430.688 112.24 430.208 112.344C429.672 112.48 429.136 112.584 428.624 112.832C428.488 112.896 428.344 112.888 428.208 112.96C427.928 113.112 399.896 128 368 128C336.256 128 308.064 113.104 307.784 112.952C307.648 112.88 307.512 112.888 307.376 112.824C306.872 112.592 306.344 112.472 305.8 112.344C305.312 112.224 304.848 112.08 304.344 112.064C303.848 112.04 303.384 112.144 302.888 112.216C302.368 112.288 301.848 112.336 301.352 112.512C300.904 112.672 300.512 112.944 300.088 113.184C299.6 113.464 299.128 113.72 298.704 114.104C298.592 114.2 298.456 114.232 298.344 114.336L288 124.688V104C288 68.72 316.712 40.016 352 40.016V40.016ZM288 176.016V147.312L305.632 129.68C316.104 134.448 340.48 144 368 144C395.52 144 419.896 134.448 430.368 129.68L448 147.312V176.016C448 220.12 412.112 256 368 256C323.888 256 288 220.12 288 176.016ZM368 272C379.232 272 389.976 269.96 400 266.4V276.704L389.84 286.856L370.528 280.416C370.24 280.32 369.952 280.368 369.656 280.304C369.112 280.184 368.576 280.104 368 280.104C367.432 280.104 366.896 280.192 366.344 280.304C366.056 280.368 365.768 280.312 365.472 280.416L346.16 286.856L336 276.704V266.4C346.024 269.96 356.768 272 368 272V272ZM256 328C256 305.944 273.944 288 296 288L324.688 288.016L338.344 301.656C338.472 301.784 338.64 301.824 338.776 301.936C339.296 302.408 339.872 302.768 340.504 303.088C340.76 303.216 341 303.368 341.264 303.472C342.136 303.792 343.048 304 344 304C344.832 304 345.688 303.864 346.528 303.584L368 296.432L389.472 303.592C390.312 303.864 391.168 304 392 304C392.952 304 393.864 303.792 394.744 303.472C395.016 303.368 395.248 303.216 395.504 303.088C396.136 302.776 396.704 302.408 397.232 301.936C397.368 301.816 397.536 301.776 397.664 301.656L411.32 288.016L440 288C462.056 288 480 305.944 480 328V376H310.536C311.424 373.496 312 370.832 312 368.032V352.032C312 347.608 308.424 344.032 304 344.032H256V328ZM296 360.032V368.032C296 372.392 292.496 375.912 288.16 376H230.544C231.424 373.504 232 370.864 232 368.08C232 368.056 232.016 368.04 232.016 368.016V360.032H296ZM40.008 224.032H208.008C212.424 224.032 216.008 227.616 216.008 232.032V351.992C216.008 352.008 216 352.016 216 352.032C216 352.048 216.008 352.056 216.008 352.072V367.992C216.008 368.008 216 368.016 216 368.032C216 372.392 212.496 375.912 208.16 376H39.928C35.552 375.952 32.008 372.408 32.008 368.016V232.032C32.008 227.616 35.592 224.032 40.008 224.032V224.032ZM16 392H31.92C31.952 392 31.968 392.016 32 392.016H199.912C199.944 392.016 199.968 392.032 199.992 392.032H288C288.112 392.032 288.2 392 288.312 392H487.84C487.896 392 487.944 392.032 488 392.032C488.056 392.032 488.104 392 488.16 392H496V408H16V392Z" fill="white"/>
<path d="M368.24 368C372.656 368 376.24 364.424 376.24 360C376.24 355.576 372.656 352 368.24 352H368.16C363.744 352 360.208 355.576 360.208 360C360.208 364.424 363.824 368 368.24 368Z" fill="white"/>
<path d="M368.24 336C372.656 336 376.24 332.424 376.24 328C376.24 323.576 372.656 320 368.24 320H368.16C363.744 320 360.208 323.576 360.208 328C360.208 332.424 363.824 336 368.24 336Z" fill="white"/>
<path d="M116.264 183.576L122.344 189.656C123.84 191.16 125.88 192 128 192C130.128 192 132.16 191.16 133.656 189.656L140.976 182.328C184.608 174.208 216 136.64 216 92C216 41.272 174.728 0 124 0C73.272 0 32 41.272 32 92C32 139.984 68.768 179.624 116.264 183.576ZM124 16C165.904 16 200 50.096 200 92C200 129.6 173.032 161.136 135.872 166.968C134.2 167.232 132.656 168.024 131.456 169.216L128 172.688L125.456 170.144C124.048 168.736 122.176 167.912 120.2 167.808C79.712 165.8 48 132.504 48 92C48 50.096 82.096 16 124 16V16Z" fill="white"/>
<path d="M150.344 117.56C151.904 119.12 153.952 119.904 156 119.904C158.048 119.904 160.096 119.12 161.656 117.56L181.56 97.656C181.592 97.624 181.624 97.624 181.656 97.592C183.224 96.032 184 93.976 184 91.92C184 89.864 183.224 87.816 181.656 86.248C181.624 86.216 181.592 86.216 181.56 86.184L161.656 66.264C158.528 63.136 153.472 63.136 150.344 66.264C147.216 69.384 147.216 74.448 150.344 77.576L164.672 91.92L150.344 106.248C147.216 109.376 147.216 114.44 150.344 117.56V117.56Z" fill="white"/>
<path d="M86.344 117.56C87.904 119.12 89.952 119.904 92 119.904C94.048 119.904 96.096 119.12 97.656 117.56C100.784 114.432 100.784 109.376 97.656 106.248L83.328 91.92L97.656 77.576C100.784 74.448 100.784 69.384 97.656 66.264C94.528 63.136 89.472 63.136 86.344 66.264L66.44 86.184C66.408 86.216 66.376 86.216 66.344 86.248C64.776 87.824 64 89.864 64 91.92C64 93.976 64.776 96.032 66.344 97.592C66.376 97.624 66.408 97.624 66.44 97.656L86.344 117.56Z" fill="white"/>
<path d="M109.48 135.496C110.32 135.776 111.176 135.912 112.008 135.912C115.36 135.912 118.488 133.792 119.592 130.44L143.592 58.408C144.992 54.216 142.728 49.68 138.536 48.288C134.312 46.872 129.8 49.152 128.416 53.344L104.416 125.376C103.024 129.568 105.288 134.104 109.48 135.496V135.496Z" fill="white"/>
</svg>
