<svg height="512" viewBox="0 0 64 64" width="512" xmlns="http://www.w3.org/2000/svg"><g id="home-working-file-check-document"><path d="m60.41 20.05a1.991 1.991 0 0 1 .76 2.61l-.2.41a1.992 1.992 0 0 1 -2.82.81l-1.15-.69-23.97-14.43a2 2 0 0 0 -2.06 0l-23.97 14.43-1.15.69a1.992 1.992 0 0 1 -2.82-.81l-.2-.41a1.991 1.991 0 0 1 .76-2.61l27.38-16.43a2 2 0 0 1 2.06 0z" fill="#ff3051"/><path d="m61.17 22.66-.2.41a1.992 1.992 0 0 1 -2.82.81l-1.15-.69-.07-.05a.251.251 0 0 0 .04-.07l.2-.41a1.991 1.991 0 0 0 -.76-2.61l-26.41-15.85.97-.58a2 2 0 0 1 2.06 0l27.38 16.43a1.991 1.991 0 0 1 .76 2.61z" fill="#cd2a00"/><path d="m61 59a2.015 2.015 0 0 1 -2 2h-54a2.006 2.006 0 0 1 -2-2 2.015 2.015 0 0 1 2-2h54a2.006 2.006 0 0 1 2 2z" fill="#898890"/><path d="m61 59a2.015 2.015 0 0 1 -2 2h-5a2.015 2.015 0 0 0 2-2 2.006 2.006 0 0 0 -2-2h5a2.006 2.006 0 0 1 2 2z" fill="#57565c"/><path d="m57 23.19v33.81h-50v-33.81l23.97-14.43a2 2 0 0 1 2.06 0z" fill="#d9ccbc"/><path d="m57 23.19v33.81h-4v-33.81l-23-13.85.97-.58a2 2 0 0 1 2.06 0z" fill="#c0ab91"/><path d="m11 27h42v26h-42z" fill="#ddfffb"/><path d="m49 27h4v26h-4z" fill="#9bfbff"/><circle cx="40" cy="40" fill="#b2fa09" r="9"/><path d="m49 40a9 9 0 0 1 -9 9 9.356 9.356 0 0 1 -2-.22 9.006 9.006 0 0 0 0-17.56 9.356 9.356 0 0 1 2-.22 9 9 0 0 1 9 9z" fill="#9cdd05"/><path d="m32 19h4v4h-4z" fill="#c6c5ca"/><path d="m32 15h4v4h-4z" fill="#898890"/><path d="m28 19h4v4h-4z" fill="#898890"/><path d="m28 15h4v4h-4z" fill="#c6c5ca"/><path d="m27 37v12h-12v-18h6v6z" fill="#fee9ab"/><path d="m27 37h-6v-6z" fill="#ffde55"/><path d="m23 37h4v12h-4z" fill="#ffde55"/><path d="m59.18 25.17a2.923 2.923 0 0 0 .83-.12 2.963 2.963 0 0 0 1.85-1.54l.21-.41a3.022 3.022 0 0 0 -1.14-3.91l-27.39-16.43a2.988 2.988 0 0 0 -3.08 0l-27.39 16.43a3.022 3.022 0 0 0 -1.14 3.91l.21.41a2.963 2.963 0 0 0 1.85 1.54 2.9 2.9 0 0 0 2.01-.14v31.09h-1a3 3 0 0 0 0 6h54a3 3 0 0 0 0-6h-1v-31.1a3.033 3.033 0 0 0 1.18.27zm-.18 32.83a1 1 0 0 1 0 2h-54a1 1 0 0 1 0-2zm-51-2v-32.24l23.48-14.14a1.02 1.02 0 0 1 1.04 0l23.48 14.14v32.24zm25.55-48.09a3.009 3.009 0 0 0 -3.1 0l-25.11 15.12a1.018 1.018 0 0 1 -.8.1.972.972 0 0 1 -.61-.51l-.21-.41a1.021 1.021 0 0 1 .38-1.31l27.38-16.42a.98.98 0 0 1 1.03-.01l27.39 16.43a1.021 1.021 0 0 1 .38 1.31l-.21.41a.972.972 0 0 1 -.61.51 1.023 1.023 0 0 1 -.8-.1z"/><path d="m53 26h-42a1 1 0 0 0 -1 1v26a1 1 0 0 0 1 1h42a1 1 0 0 0 1-1v-26a1 1 0 0 0 -1-1zm-1 26h-40v-24h40z"/><path d="m36 14h-8a1 1 0 0 0 -1 1v8a1 1 0 0 0 1 1h8a1 1 0 0 0 1-1v-8a1 1 0 0 0 -1-1zm-5 8h-2v-2h2zm0-4h-2v-2h2zm4 4h-2v-2h2zm0-4h-2v-2h2z"/><path d="m40 50a10 10 0 1 0 -10-10 10.011 10.011 0 0 0 10 10zm0-18a8 8 0 1 1 -8 8 8.009 8.009 0 0 1 8-8z"/><path d="m39 44a1 1 0 0 0 .707-.293l5.657-5.657-1.414-1.414-4.95 4.95-2.121-2.122-1.414 1.414 2.828 2.829a1 1 0 0 0 .707.293z"/><path d="m18 40h6v2h-6z"/><path d="m18 44h6v2h-6z"/><path d="m27.71 36.29-6-6a1.033 1.033 0 0 0 -.71-.29h-6a1 1 0 0 0 -1 1v18a1 1 0 0 0 1 1h12a1 1 0 0 0 1-1v-12a1.033 1.033 0 0 0 -.29-.71zm-5.71-2.88 2.59 2.59h-2.59zm4 14.59h-10v-16h4v5a1 1 0 0 0 1 1h5z"/></g></svg>